<svg width="114" height="31" viewBox="0 0 114 31" fill="none" xmlns="http://www.w3.org/2000/svg">
<path d="M69.6484 3.30078L64.4805 29H59.998L57.1328 14.4805C57.0742 14.1523 57.0098 13.7891 56.9395 13.3906C56.8809 12.9922 56.8164 12.5645 56.7461 12.1074C56.6875 11.6387 56.623 11.1406 56.5527 10.6133C56.4941 10.0742 56.4355 9.5 56.377 8.89062C56.3301 9.32422 56.2773 9.77539 56.2188 10.2441C56.1719 10.7012 56.1133 11.1699 56.043 11.6504C55.9844 12.1191 55.9141 12.5938 55.832 13.0742C55.7617 13.543 55.6855 14 55.6035 14.4453L52.7559 29H48.3086L43.0879 3.30078H46.9199L49.7148 17.9258C49.8203 18.5 49.9199 19.0801 50.0137 19.666C50.1074 20.252 50.1953 20.8379 50.2773 21.4238C50.3711 21.998 50.4531 22.5488 50.5234 23.0762C50.5938 23.5918 50.6523 24.0723 50.6992 24.5176C50.7695 23.9668 50.8457 23.3984 50.9277 22.8125C51.0098 22.2266 51.0977 21.6523 51.1914 21.0898C51.2852 20.5156 51.3789 19.9648 51.4727 19.4375C51.5664 18.9102 51.6543 18.4297 51.7363 17.9961L54.6895 3.30078H58.082L60.9297 17.9609C61.0234 18.418 61.1172 18.9102 61.2109 19.4375C61.3047 19.9531 61.3926 20.4922 61.4746 21.0547C61.5566 21.6055 61.6387 22.1738 61.7207 22.7598C61.8027 23.334 61.8789 23.9199 61.9492 24.5176C62.0312 23.791 62.125 23.0469 62.2305 22.2852C62.3359 21.5234 62.4473 20.7734 62.5645 20.0352C62.6934 19.2852 62.8164 18.582 62.9336 17.9258L65.7812 3.30078H69.6484ZM81.9805 29H71.1524V3.30078H81.9805V6.64062H75.0196V13.9355H81.5411V17.293H75.0196V25.5723H81.9805V29ZM95.7716 29H84.9435V3.30078H95.7716V6.64062H88.8107V13.9355H95.3322V17.293H88.8107V25.5723H95.7716V29ZM113.571 29H109.264L104.324 17.7324L102.602 19.5957V29H98.7346V3.30078H102.602V15.7461C102.731 15.3477 102.942 14.8555 103.235 14.2695C103.539 13.6719 103.914 12.9688 104.36 12.1602L109.194 3.30078H113.36L107.014 14.6914L113.571 29Z" fill="#333333"/>
<path d="M9.24414 29H3.12695V3.30078H15.4316V8.48633H9.24414V13.9883H14.9746V19.1738H9.24414V29ZM17.7618 29V3.30078H23.879V29H17.7618ZM36.2638 29H30.1818V8.5918H25.5412V3.30078H40.8693V8.5918H36.2638V29Z" fill="#333333"/>
</svg>
